<svg xmlns="http://www.w3.org/2000/svg" viewBox="0 0 26 26" fill="currentColor"><path d="M7.085 13.78L11.7325 10.4L7.085 7.02L5.915 8.58L8.4175 10.4L5.915 12.22L7.085 13.78ZM18.915 13.78L20.085 12.22L17.5825 10.4L20.085 8.58L18.915 7.02L14.2675 10.4L18.915 13.78ZM11.05 19.565L13 17.615L14.95 19.565L16.9 17.615L18.1675 18.8825L19.5325 17.5175L16.9 14.885L14.95 16.835L13 14.885L11.05 16.835L9.1 14.885L6.4675 17.5175L7.8325 18.8825L9.1 17.615L11.05 19.565ZM7.93 24.9762C6.34833 24.2937 4.9725 23.3675 3.8025 22.1975C2.6325 21.0275 1.70625 19.6517 1.02375 18.07C0.34125 16.4883 0 14.7983 0 13C0 11.2017 0.34125 9.51167 1.02375 7.93C1.70625 6.34833 2.6325 4.9725 3.8025 3.8025C4.9725 2.6325 6.34833 1.70625 7.93 1.02375C9.51167 0.34125 11.2017 0 13 0C14.7983 0 16.4883 0.34125 18.07 1.02375C19.6517 1.70625 21.0275 2.6325 22.1975 3.8025C23.3675 4.9725 24.2937 6.34833 24.9762 7.93C25.6587 9.51167 26 11.2017 26 13C26 14.7983 25.6587 16.4883 24.9762 18.07C24.2937 19.6517 23.3675 21.0275 22.1975 22.1975C21.0275 23.3675 19.6517 24.2937 18.07 24.9762C16.4883 25.6587 14.7983 26 13 26C11.2017 26 9.51167 25.6587 7.93 24.9762ZM20.3775 20.3775C22.3925 18.3625 23.4 15.9033 23.4 13C23.4 10.0967 22.3925 7.6375 20.3775 5.6225C18.3625 3.6075 15.9033 2.6 13 2.6C10.0967 2.6 7.6375 3.6075 5.6225 5.6225C3.6075 7.6375 2.6 10.0967 2.6 13C2.6 15.9033 3.6075 18.3625 5.6225 20.3775C7.6375 22.3925 10.0967 23.4 13 23.4C15.9033 23.4 18.3625 22.3925 20.3775 20.3775Z" fill="#0042C3"></path></svg>