<svg xmlns="http://www.w3.org/2000/svg" viewBox="0 0 22 24" fill="currentColor"><path d="M9.77778 20.91V12.69L2.44444 8.52V16.74L9.77778 20.91ZM12.2222 20.91L19.5556 16.74V8.52L12.2222 12.69V20.91ZM9.77778 23.67L1.22222 18.84C0.835185 18.62 0.534722 18.33 0.320833 17.97C0.106944 17.61 0 17.21 0 16.77V7.23C0 6.79 0.106944 6.39 0.320833 6.03C0.534722 5.67 0.835185 5.38 1.22222 5.16L9.77778 0.33C10.1648 0.11 10.5722 0 11 0C11.4278 0 11.8352 0.11 12.2222 0.33L20.7778 5.16C21.1648 5.38 21.4653 5.67 21.6792 6.03C21.8931 6.39 22 6.79 22 7.23V16.77C22 17.21 21.8931 17.61 21.6792 17.97C21.4653 18.33 21.1648 18.62 20.7778 18.84L12.2222 23.67C11.8352 23.89 11.4278 24 11 24C10.5722 24 10.1648 23.89 9.77778 23.67ZM15.8889 7.83L18.2417 6.51L11 2.4L8.61667 3.75L15.8889 7.83ZM11 10.62L13.3833 9.27L6.14167 5.16L3.75833 6.51L11 10.62Z" fill="#0042C3"></path></svg>